<?xml version="1.0" encoding="utf-8"?>
<svg xmlns="http://www.w3.org/2000/svg" id="Layer_1" style="enable-background:new 0 0 123.7470322 40" version="1.1" viewBox="0 0 123.747 40" x="0" y="0">
  <style>.st0{display:none}.st1{fill:#262d3d}</style>
  <g id="Logos">
    <g id="Experian">
      <path class="st1" d="M19.572 9.412h-4.533a2.439 2.439 0 0 1-2.44-2.438V2.439A2.439 2.439 0 0 1 15.038 0H19.572a2.438 2.438 0 0 1 2.438 2.439v4.533a2.439 2.439 0 0 1-2.438 2.44M7.845 19.573h-5.1A2.743 2.743 0 0 1 0 16.833V11.728a2.744 2.744 0 0 1 2.745-2.744h5.1a2.745 2.745 0 0 1 2.744 2.744v5.101a2.742 2.742 0 0 1-2.741 2.743l-.003.001M7.358 30.158H4.243c-.926 0-1.678-.75-1.678-1.676V25.367c0-.929.753-1.68 1.678-1.68h3.115c.926 0 1.677.751 1.677 1.68v3.114c0 .926-.75 1.677-1.676 1.677h-.001M15.722 40h-3.684a1.98 1.98 0 0 1-1.982-1.979v-3.687a1.98 1.98 0 0 1 1.982-1.982h3.684a1.98 1.98 0 0 1 1.982 1.982v3.684A1.98 1.98 0 0 1 15.722 40m13.496-28.733h-2.551a1.372 1.372 0 0 1-1.372-1.372V7.347c0-.758.613-1.374 1.372-1.374h2.552c.757 0 1.371.616 1.371 1.374v2.548a1.374 1.374 0 0 1-1.372 1.372M85.056 12.969c.81 0 1.467-.657 1.467-1.467v-.003a1.47 1.47 0 1 0-1.467 1.47zM31.382 28.655c-.228.341-.597.511-.996.511a1.425 1.425 0 0 1-.682-.17c-.313-.2-.54-.626-.54-1.052 0-.199.057-.398.171-.569l3.412-5.372-3.412-5.372a1.125 1.125 0 0 1-.171-.597c0-.398.199-.824.569-1.024.189-.112.405-.171.625-.17.398 0 .796.17 1.024.512l2.785 4.405 2.814-4.405c.228-.342.626-.512 1.024-.512.227 0 .427.057.625.17.369.2.568.626.568 1.024 0 .199-.057.427-.171.597l-3.411 5.372 3.411 5.372c.114.17.171.369.171.569 0 .426-.228.852-.54 1.052-.21.112-.444.171-.682.17a1.17 1.17 0 0 1-.996-.511l-2.813-4.378-2.785 4.378zm12.16-12.138a7.268 7.268 0 0 1 4.889-1.876 7.327 7.327 0 0 1 7.363 7.291v.07c0 4.037-3.268 7.306-7.362 7.306a7.262 7.262 0 0 1-4.889-1.876v6.282c0 .625-.569 1.164-1.222 1.164-.597 0-1.194-.54-1.194-1.164V15.92c0-.625.596-1.165 1.194-1.165.653 0 1.221.54 1.221 1.164v.598zm4.888.569c-2.729 0-4.889 2.16-4.889 4.917a4.853 4.853 0 0 0 4.889 4.889c2.758 0 4.918-2.16 4.918-4.889.001-2.757-2.159-4.916-4.918-4.917zm28.174 3.582v7.361c0 .626-.597 1.164-1.194 1.164-.654 0-1.223-.54-1.223-1.164V15.921c0-.626.569-1.165 1.223-1.165.569 0 1.164.511 1.194 1.108.995-.767 2.274-1.194 3.667-1.222.767 0 1.335.596 1.335 1.194 0 .653-.596 1.251-1.335 1.251-1.905.056-3.667.739-3.667 3.581zm8.469-5.912c-.653 0-1.222.54-1.222 1.164v12.109c0 .626.569 1.164 1.222 1.164.597 0 1.194-.54 1.194-1.164V15.921c0-.626-.597-1.165-1.194-1.165zm15.436 1.164c0-.625.567-1.164 1.221-1.164.597 0 1.194.54 1.194 1.164v12.109c0 .626-.596 1.164-1.194 1.164-.654 0-1.221-.54-1.221-1.164v-.597a7.323 7.323 0 0 1-4.891 1.876 7.326 7.326 0 0 1-7.362-7.291v-.069c0-4.036 3.269-7.306 7.362-7.306 1.876 0 3.582.711 4.891 1.876v-.598zm-4.891 10.944c2.729 0 4.891-2.16 4.891-4.917a4.854 4.854 0 0 0-4.818-4.889h-.073c-2.756 0-4.916 2.16-4.916 4.889 0 2.757 2.16 4.917 4.916 4.917zm19.613-6.054c0-2.018-1.762-3.78-3.78-3.78-1.962 0-3.78.796-3.78 3.638v7.362c0 .626-.597 1.164-1.195 1.164-.654 0-1.221-.54-1.221-1.164V15.921c0-.626.568-1.165 1.221-1.165.569 0 1.166.511 1.195 1.108 1.023-.796 2.331-1.222 3.751-1.222 3.298 0 6.226 2.587 6.226 5.827v7.561c0 .626-.596 1.165-1.194 1.165-.654 0-1.222-.54-1.222-1.164l-.001-7.221zm-86.739.739c-.057-3.724-3.382-6.907-7.305-6.907-4.093 0-7.362 3.268-7.362 7.304a7.326 7.326 0 0 0 7.29 7.362h.071c1.961 0 3.781-.768 5.088-2.075.256-.228.427-.569.427-.91 0-.653-.569-1.221-1.222-1.221-.37 0-.711.227-.966.484-.825.88-2.047 1.278-3.326 1.278-2.444 0-4.432-1.675-4.86-4.005h10.972c.008 0 .015-.003.023-.003h.033c.02-.002.041-.009.062-.012a.736.736 0 0 0 .124-.025 1.31 1.31 0 0 0 .951-1.27zm-7.305-4.49a4.853 4.853 0 0 1 4.66 3.385h-9.349c.625-1.971 2.459-3.385 4.689-3.385zm50.955 4.49c-.058-3.724-3.383-6.907-7.306-6.907-4.093 0-7.364 3.268-7.364 7.304a7.328 7.328 0 0 0 7.294 7.362h.07c1.961 0 3.78-.768 5.088-2.075.256-.228.427-.569.427-.91 0-.653-.569-1.221-1.222-1.221-.37 0-.711.227-.967.484-.824.88-2.047 1.278-3.324 1.278-2.444 0-4.434-1.675-4.862-4.005H70.93c.008 0 .016-.003.023-.003h.052c.033-.003.065-.012.098-.02.016-.004.033-.004.049-.009.585-.145.995-.674.99-1.278zm-7.305-4.49a4.856 4.856 0 0 1 4.661 3.385h-9.351c.625-1.971 2.459-3.385 4.69-3.385zm55.371 12.144a.198.198 0 0 1-.201-.194v-2.052h-.459a.198.198 0 0 1-.194-.201c0-.116.084-.202.194-.202h1.326c.11 0 .194.087.194.202a.199.199 0 0 1-.194.201h-.466v2.051a.194.194 0 0 1-.2.195zm2.371.003c-.11 0-.174-.08-.198-.156l-.571-1.677v1.636a.194.194 0 0 1-.192.196h-.009a.2.2 0 0 1-.201-.196v-2.164c0-.162.14-.302.302-.302.128 0 .247.092.29.222l.579 1.693.573-1.693a.316.316 0 0 1 .293-.222c.16 0 .302.14.302.302v2.164a.194.194 0 0 1-.192.196h-.009a.199.199 0 0 1-.202-.195V27.379l-.335.991-.23.683c-.045.101-.112.154-.2.153z"/>
    </g>
  </g>
</svg>